<mxfile host="app.diagrams.net" agent="Mozilla/5.0 (Macintosh; Intel Mac OS X 10_15_7) AppleWebKit/537.36 (KHTML, like Gecko) Chrome/135.0.0.0 Safari/537.36" version="26.2.14">
  <diagram name="Page-1" id="5f0bae14-7c28-e335-631c-24af17079c00">
    <mxGraphModel dx="823" dy="637" grid="1" gridSize="10" guides="1" tooltips="1" connect="1" arrows="1" fold="1" page="1" pageScale="1" pageWidth="1100" pageHeight="850" background="none" math="0" shadow="0">
      <root>
        <mxCell id="0" />
        <mxCell id="1" parent="0" />
        <mxCell id="y3JsNVgzo6xEsLXZUltI-1" value="Module" style="shape=component;align=left;spacingLeft=36;rounded=0;shadow=0;comic=0;labelBackgroundColor=none;strokeWidth=1;fontFamily=Verdana;fontSize=12;html=1;" vertex="1" parent="1">
          <mxGeometry x="520" y="520" width="120" height="60" as="geometry" />
        </mxCell>
        <mxCell id="y3JsNVgzo6xEsLXZUltI-2" value="&amp;laquo;interface&amp;raquo;&lt;br&gt;&lt;b&gt;Name&lt;/b&gt;" style="html=1;rounded=0;shadow=0;comic=0;labelBackgroundColor=none;strokeWidth=1;fontFamily=Verdana;fontSize=12;align=center;" vertex="1" parent="1">
          <mxGeometry x="70" y="630" width="110" height="50" as="geometry" />
        </mxCell>
        <mxCell id="y3JsNVgzo6xEsLXZUltI-3" value="" style="rounded=0;whiteSpace=wrap;html=1;" vertex="1" parent="1">
          <mxGeometry x="430" y="350" width="120" height="60" as="geometry" />
        </mxCell>
        <mxCell id="y3JsNVgzo6xEsLXZUltI-6" value="" style="shape=component;align=left;spacingLeft=36;rounded=0;shadow=0;comic=0;labelBackgroundColor=none;strokeWidth=1;fontFamily=Verdana;fontSize=12;html=1;movable=1;resizable=1;rotatable=1;deletable=1;editable=1;locked=0;connectable=1;gradientColor=none;" vertex="1" parent="1">
          <mxGeometry x="370" y="550" width="50" height="40" as="geometry" />
        </mxCell>
        <mxCell id="y3JsNVgzo6xEsLXZUltI-14" value="" style="group;" vertex="1" connectable="0" parent="1">
          <mxGeometry x="370" y="210" width="26.67" height="19" as="geometry" />
        </mxCell>
        <mxCell id="y3JsNVgzo6xEsLXZUltI-15" value="" style="rounded=0;whiteSpace=wrap;html=1;" vertex="1" parent="y3JsNVgzo6xEsLXZUltI-14">
          <mxGeometry x="6.67" width="18" height="19" as="geometry" />
        </mxCell>
        <mxCell id="y3JsNVgzo6xEsLXZUltI-16" value="" style="rounded=0;whiteSpace=wrap;html=1;aspect=fixed;" vertex="1" parent="y3JsNVgzo6xEsLXZUltI-14">
          <mxGeometry y="3.8" width="9.499406250000002" height="3.16646875" as="geometry" />
        </mxCell>
        <mxCell id="y3JsNVgzo6xEsLXZUltI-17" value="" style="rounded=0;whiteSpace=wrap;html=1;aspect=fixed;" vertex="1" parent="y3JsNVgzo6xEsLXZUltI-14">
          <mxGeometry y="11.399999999999999" width="9.499406250000002" height="3.16646875" as="geometry" />
        </mxCell>
        <mxCell id="y3JsNVgzo6xEsLXZUltI-18" value="" style="group" vertex="1" connectable="0" parent="1">
          <mxGeometry x="230" y="270" width="120" height="60" as="geometry" />
        </mxCell>
        <mxCell id="y3JsNVgzo6xEsLXZUltI-12" value="" style="rounded=0;whiteSpace=wrap;html=1;" vertex="1" parent="y3JsNVgzo6xEsLXZUltI-18">
          <mxGeometry width="120" height="60" as="geometry" />
        </mxCell>
        <mxCell id="y3JsNVgzo6xEsLXZUltI-11" value="" style="group;" vertex="1" connectable="0" parent="y3JsNVgzo6xEsLXZUltI-18">
          <mxGeometry x="91" y="4" width="26.67" height="19" as="geometry" />
        </mxCell>
        <mxCell id="y3JsNVgzo6xEsLXZUltI-7" value="" style="rounded=0;whiteSpace=wrap;html=1;" vertex="1" parent="y3JsNVgzo6xEsLXZUltI-11">
          <mxGeometry x="6.67" width="18" height="19" as="geometry" />
        </mxCell>
        <mxCell id="y3JsNVgzo6xEsLXZUltI-8" value="" style="rounded=0;whiteSpace=wrap;html=1;aspect=fixed;" vertex="1" parent="y3JsNVgzo6xEsLXZUltI-11">
          <mxGeometry y="3.8" width="9.499406250000002" height="3.16646875" as="geometry" />
        </mxCell>
        <mxCell id="y3JsNVgzo6xEsLXZUltI-9" value="" style="rounded=0;whiteSpace=wrap;html=1;aspect=fixed;" vertex="1" parent="y3JsNVgzo6xEsLXZUltI-11">
          <mxGeometry y="11.399999999999999" width="9.499406250000002" height="3.16646875" as="geometry" />
        </mxCell>
        <mxCell id="y3JsNVgzo6xEsLXZUltI-19" value="" style="group" vertex="1" connectable="0" parent="1">
          <mxGeometry x="610" y="270" width="120" height="60" as="geometry" />
        </mxCell>
        <mxCell id="y3JsNVgzo6xEsLXZUltI-20" value="" style="rounded=0;whiteSpace=wrap;html=1;" vertex="1" parent="y3JsNVgzo6xEsLXZUltI-19">
          <mxGeometry width="120" height="60" as="geometry" />
        </mxCell>
        <mxCell id="y3JsNVgzo6xEsLXZUltI-21" value="" style="group;" vertex="1" connectable="0" parent="y3JsNVgzo6xEsLXZUltI-19">
          <mxGeometry x="91" y="4" width="26.67" height="19" as="geometry" />
        </mxCell>
        <mxCell id="y3JsNVgzo6xEsLXZUltI-22" value="" style="rounded=0;whiteSpace=wrap;html=1;" vertex="1" parent="y3JsNVgzo6xEsLXZUltI-21">
          <mxGeometry x="6.67" width="18" height="19" as="geometry" />
        </mxCell>
        <mxCell id="y3JsNVgzo6xEsLXZUltI-23" value="" style="rounded=0;whiteSpace=wrap;html=1;aspect=fixed;" vertex="1" parent="y3JsNVgzo6xEsLXZUltI-21">
          <mxGeometry y="3.8" width="9.499406250000002" height="3.16646875" as="geometry" />
        </mxCell>
        <mxCell id="y3JsNVgzo6xEsLXZUltI-24" value="" style="rounded=0;whiteSpace=wrap;html=1;aspect=fixed;" vertex="1" parent="y3JsNVgzo6xEsLXZUltI-21">
          <mxGeometry y="11.399999999999999" width="9.499406250000002" height="3.16646875" as="geometry" />
        </mxCell>
        <mxCell id="y3JsNVgzo6xEsLXZUltI-25" value="&amp;lt;&amp;lt; Service &amp;gt;&amp;gt;" style="text;html=1;align=center;verticalAlign=middle;whiteSpace=wrap;rounded=0;fontSize=9;" vertex="1" parent="y3JsNVgzo6xEsLXZUltI-19">
          <mxGeometry x="20" y="-7" width="80" height="30" as="geometry" />
        </mxCell>
        <mxCell id="y3JsNVgzo6xEsLXZUltI-34" value="Database request handler" style="text;html=1;align=center;verticalAlign=middle;whiteSpace=wrap;rounded=0;" vertex="1" parent="y3JsNVgzo6xEsLXZUltI-19">
          <mxGeometry y="23" width="120" height="30" as="geometry" />
        </mxCell>
        <mxCell id="y3JsNVgzo6xEsLXZUltI-26" value="" style="group" vertex="1" connectable="0" parent="1">
          <mxGeometry x="40" y="40" width="120" height="60" as="geometry" />
        </mxCell>
        <mxCell id="y3JsNVgzo6xEsLXZUltI-27" value="" style="rounded=0;whiteSpace=wrap;html=1;" vertex="1" parent="y3JsNVgzo6xEsLXZUltI-26">
          <mxGeometry width="120" height="60" as="geometry" />
        </mxCell>
        <mxCell id="y3JsNVgzo6xEsLXZUltI-28" value="" style="group;" vertex="1" connectable="0" parent="y3JsNVgzo6xEsLXZUltI-26">
          <mxGeometry x="91" y="4" width="26.67" height="19" as="geometry" />
        </mxCell>
        <mxCell id="y3JsNVgzo6xEsLXZUltI-29" value="" style="rounded=0;whiteSpace=wrap;html=1;" vertex="1" parent="y3JsNVgzo6xEsLXZUltI-28">
          <mxGeometry x="6.67" width="18" height="19" as="geometry" />
        </mxCell>
        <mxCell id="y3JsNVgzo6xEsLXZUltI-30" value="" style="rounded=0;whiteSpace=wrap;html=1;aspect=fixed;" vertex="1" parent="y3JsNVgzo6xEsLXZUltI-28">
          <mxGeometry y="3.8" width="9.499406250000002" height="3.16646875" as="geometry" />
        </mxCell>
        <mxCell id="y3JsNVgzo6xEsLXZUltI-31" value="" style="rounded=0;whiteSpace=wrap;html=1;aspect=fixed;" vertex="1" parent="y3JsNVgzo6xEsLXZUltI-28">
          <mxGeometry y="11.399999999999999" width="9.499406250000002" height="3.16646875" as="geometry" />
        </mxCell>
        <mxCell id="y3JsNVgzo6xEsLXZUltI-32" value="Text" style="text;html=1;align=center;verticalAlign=middle;whiteSpace=wrap;rounded=0;" vertex="1" parent="y3JsNVgzo6xEsLXZUltI-26">
          <mxGeometry x="30" y="-7" width="60" height="30" as="geometry" />
        </mxCell>
        <mxCell id="y3JsNVgzo6xEsLXZUltI-33" value="DB" style="shape=cylinder3;whiteSpace=wrap;html=1;boundedLbl=1;backgroundOutline=1;size=15;" vertex="1" parent="1">
          <mxGeometry x="770" y="260" width="60" height="80" as="geometry" />
        </mxCell>
      </root>
    </mxGraphModel>
  </diagram>
</mxfile>
